<svg id="Laag_1" data-name="Laag 1" xmlns="http://www.w3.org/2000/svg" viewBox="0 0 81.53 96.06"><defs><style>.cls-1{fill:none;stroke:#545353;stroke-linecap:round;stroke-linejoin:round;stroke-width:3px;}</style></defs><g id="g10"><path id="path243" class="cls-1" d="M19,28.45l64.39.07c2.3,0,3.92,3.13,4.15,7l3.22,54c.23,3.87-1.85,7-4.14,7H16.43c-2.29,0-4.33-3.13-4.14-7l2.6-53.68c.19-3.88,1.85-7.4,4.14-7.4Z" transform="translate(-10.77 -1.97)"/><path id="path245" class="cls-1" d="M71.81,24.43A21.1,21.1,0,0,0,61.64,6.26a19.68,19.68,0,0,0-20.3.06A21.09,21.09,0,0,0,31.27,24.55" transform="translate(-10.77 -1.97)"/></g></svg>