<svg id="Laag_1" data-name="Laag 1" xmlns="http://www.w3.org/2000/svg" viewBox="0 0 87.13 87.13"><defs><style>.cls-1{fill:#343434;}</style></defs><g id="Group_2" data-name="Group 2"><path id="Rectangle_85" data-name="Rectangle 85" class="cls-1" d="M25.66,9.74l64.6,64.6a11.25,11.25,0,0,1,0,15.92h0a11.25,11.25,0,0,1-15.92,0L9.74,25.67a11.26,11.26,0,0,1,0-15.93h0A11.25,11.25,0,0,1,25.66,9.74Z" transform="translate(-6.44 -6.44)"/><path id="Rectangle_90" data-name="Rectangle 90" class="cls-1" d="M90.26,25.66l-64.6,64.6a11.25,11.25,0,0,1-15.92,0h0a11.26,11.26,0,0,1,0-15.93L74.34,9.74a11.25,11.25,0,0,1,15.92,0h0A11.25,11.25,0,0,1,90.26,25.66Z" transform="translate(-6.44 -6.44)"/></g></svg>