<?xml version="1.0" encoding="utf-8"?>
<!-- Generator: Adobe Illustrator 25.4.1, SVG Export Plug-In . SVG Version: 6.00 Build 0)  -->
<svg version="1.1" id="Laag_1" xmlns="http://www.w3.org/2000/svg" xmlns:xlink="http://www.w3.org/1999/xlink" x="0px" y="0px"
	 viewBox="0 0 60 60.1" style="enable-background:new 0 0 60 60.1;" xml:space="preserve">

<g id="XMLID_834_">
	<path id="XMLID_835_" class="st0" d="M17.4,31.8h5.9v24.1c0,0.5,0.4,0.9,0.9,0.9H34c0.5,0,0.9-0.4,0.9-0.9v-24h6.7
		c0.4,0,0.8-0.3,0.9-0.8l1-8.9c0-0.2,0-0.5-0.2-0.7c-0.2-0.2-0.4-0.3-0.6-0.3h-7.7v-5.6c0-1.7,0.9-2.5,2.7-2.5c0.3,0,5.1,0,5.1,0
		c0.5,0,0.9-0.4,0.9-0.9V4.2c0-0.5-0.4-0.9-0.9-0.9h-7c0,0-0.2,0-0.3,0c-1.2,0-5.4,0.2-8.7,3.3c-3.7,3.4-3.2,7.4-3.1,8.2v6.5h-6.1
		c-0.5,0-0.9,0.4-0.9,0.9v8.8C16.5,31.4,16.9,31.8,17.4,31.8z"/>
</g>
</svg>
