<svg id="Laag_1" data-name="Laag 1" xmlns="http://www.w3.org/2000/svg" width="60" height="60.08" viewBox="0 0 60 60.08"><defs><style>.cls-1{fill:#333;fill-rule:evenodd;}</style></defs><path class="cls-1" d="M52.65,0A7.36,7.36,0,0,1,60,7.35V52.73a7.36,7.36,0,0,1-7.35,7.35H40.2V37.43H48l1.5-9.68H40.2v-6.3c0-2.62,1.27-5.25,5.47-5.25h4.21V8a50.28,50.28,0,0,0-7.5-.67c-7.66,0-12.68,4.65-12.68,13v7.35H21.22v9.67H29.7V60H7.35A7.36,7.36,0,0,1,0,52.65V7.35A7.36,7.36,0,0,1,7.35,0Z" transform="translate(0 0)"/></svg>