<svg version="1.1" id="Layer_1" xmlns="http://www.w3.org/2000/svg" xmlns:xlink="http://www.w3.org/1999/xlink" x="0px"
     y="0px" viewBox="0 0 20 20" style="enable-background:new 0 0 20 20;" xml:space="preserve" aria-hidden="true"
     role="img" focusable="false">
    <path class="st0" d="M17.3,5.8l-0.5-1.9c-0.1-0.4-0.4-0.8-0.8-1c-0.3-0.2-0.8-0.3-1.2-0.2L2.1,6.1c-0.8,0.2-1.4,1.2-1.3,2l2,7.4
	c0.1,0.4,0.4,0.8,0.8,1c0.3,0.1,0.6,0.2,0.9,0.2h12.8c1.1,0,2-0.9,2-2V7.8C19.3,6.7,18.4,5.8,17.3,5.8z M15,3.4h0.2
	c0.2,0,0.3,0.1,0.5,0.2s0.4,0.3,0.4,0.5l0.5,1.7H6L15,3.4z M1.7,7.9C1.6,7.7,1.6,7.5,1.8,7.2C1.9,7,2.1,6.9,2.3,6.8l1.1-0.3
	C3,6.8,2.9,7.3,2.9,7.8v4.5L1.7,7.9z M18.6,14.7c0,0.7-0.6,1.3-1.3,1.3H4.9c-0.1,0-0.2,0-0.3-0.1c-0.6-0.1-1-0.6-1-1.2V7.8
	c0-0.7,0.6-1.3,1.3-1.3h12.6c0.6,0.1,1.1,0.6,1.1,1.3V14.7z"></path>
    <path class="st1" d="M9.1,14.3c1.1,0,1.6-0.6,1.6-1.6V8.5H9.5v4.3c0,0.4-0.2,0.7-0.4,0.7s-0.4-0.2-0.4-0.7V8.5H7.5v4.2
	C7.5,13.9,7.9,14.3,9.1,14.3 M13,9.5c0.4,0,0.4,0.6,0.4,2.1c0,1.4-0.1,1.9-0.4,1.9s-0.4-0.7-0.4-2C12.7,10.1,12.7,9.5,13,9.5
	 M13,14.3c0.6,0,1.1-0.3,1.3-1c0.2-0.5,0.2-1.1,0.2-1.9c0-0.9-0.1-1.6-0.4-2.2c-0.3-0.5-0.7-0.7-1.1-0.7c-0.5,0-0.9,0.2-1.1,0.7
	c-0.3,0.6-0.4,1.3-0.4,2.2c0,0.7,0,1.4,0.2,1.9C12,14,12.4,14.3,13,14.3"></path>
</svg>