<svg id="Laag_1" data-name="Laag 1" xmlns="http://www.w3.org/2000/svg" width="60" height="60.08" viewBox="0 0 60 60.08"><defs><style>.cls-1,.cls-2{fill:#333;}.cls-1{fill-rule:evenodd;}.cls-3{fill:#fff;}</style></defs><path class="cls-1" d="M52.65,0A7.36,7.36,0,0,1,60,7.35V52.73a7.36,7.36,0,0,1-7.35,7.35H40.2V37.43H48l1.5-9.68H40.2v-6.3c0-2.62,1.27-5.25,5.47-5.25h4.21V8a50.28,50.28,0,0,0-7.5-.67c-7.66,0-12.68,4.65-12.68,13v7.35H21.22v9.67H29.7V60H7.35A7.36,7.36,0,0,1,0,52.65V7.35A7.36,7.36,0,0,1,7.35,0Z" transform="translate(0 0)"/><rect class="cls-2" x="6.53" y="5.02" width="46.12" height="55.05"/><path class="cls-3" d="M30,4.47c-7,0-7.8,0-10.55.13a18.37,18.37,0,0,0-6.2,1.21,12.95,12.95,0,0,0-7.47,7.48,18.67,18.67,0,0,0-1.22,6.2c-.13,2.75-.13,3.58-.13,10.55s0,7.8.13,10.54a18.23,18.23,0,0,0,1.22,6.2,12.44,12.44,0,0,0,2.94,4.54,12.48,12.48,0,0,0,4.53,2.94,18.67,18.67,0,0,0,6.2,1.22c2.75.12,3.58.12,10.55.12s7.8,0,10.55-.12a18.34,18.34,0,0,0,6.2-1.22,12.95,12.95,0,0,0,7.47-7.48,18.56,18.56,0,0,0,1.22-6.2c.13-2.74.13-3.58.13-10.54s0-7.8-.13-10.55a18.29,18.29,0,0,0-1.22-6.2,12.95,12.95,0,0,0-7.47-7.48,18.69,18.69,0,0,0-6.2-1.21C37.8,4.47,37,4.47,30,4.47Zm0,4.6c6.84,0,7.61,0,10.35.13a13.21,13.21,0,0,1,4.73.9A7.46,7.46,0,0,1,48,12,7.63,7.63,0,0,1,49.94,15a15.17,15.17,0,0,1,.9,4.73C51,22.37,51,23.2,51,30s0,7.6-.12,10.35a13.5,13.5,0,0,1-.9,4.73A8.55,8.55,0,0,1,45.08,50a14.82,14.82,0,0,1-4.73.89C37.67,51,36.84,51,30,51s-7.61,0-10.35-.13A13.28,13.28,0,0,1,14.92,50,7.48,7.48,0,0,1,12,48.06a7.48,7.48,0,0,1-1.92-2.94,15.1,15.1,0,0,1-.9-4.73C9,37.64,9,36.88,9,30s0-7.61.12-10.36a13.56,13.56,0,0,1,.9-4.73A7.63,7.63,0,0,1,12,12a7.46,7.46,0,0,1,2.94-1.91,15,15,0,0,1,4.73-.9C22.39,9.07,23.16,9.07,30,9.07Z" transform="translate(0 0)"/><path class="cls-3" d="M30,38.54A8.5,8.5,0,1,1,38.5,30,8.5,8.5,0,0,1,30,38.54Zm0-21.61A13.11,13.11,0,1,0,43.1,30,13.13,13.13,0,0,0,30,16.93Z" transform="translate(0 0)"/><path class="cls-3" d="M46.75,16.36a3.07,3.07,0,1,1-3.07-3.07A3.12,3.12,0,0,1,46.75,16.36Z" transform="translate(0 0)"/></svg>