<svg id="Laag_1" data-name="Laag 1" xmlns="http://www.w3.org/2000/svg" width="28.22mm" height="28.22mm" viewBox="0 0 80 80"><defs></defs><path class="cls-1" d="M40,0C29.1,0,27.8,0,23.5.2a28.58,28.58,0,0,0-9.7,1.9A20.24,20.24,0,0,0,2.1,13.8,29.12,29.12,0,0,0,.2,23.5C0,27.8,0,29.1,0,40S0,52.2.2,56.5a28.58,28.58,0,0,0,1.9,9.7A20.24,20.24,0,0,0,13.8,77.9a29.12,29.12,0,0,0,9.7,1.9c4.3.2,5.6.2,16.5.2s12.2,0,16.5-.2a28.58,28.58,0,0,0,9.7-1.9A20.24,20.24,0,0,0,77.9,66.2a29.12,29.12,0,0,0,1.9-9.7c.2-4.3.2-5.6.2-16.5s0-12.2-.2-16.5a28.58,28.58,0,0,0-1.9-9.7A20.24,20.24,0,0,0,66.2,2.1,29.12,29.12,0,0,0,56.5.2C52.2,0,50.9,0,40,0Zm0,7.2c10.7,0,11.9,0,16.2.2a21,21,0,0,1,7.4,1.4,11.86,11.86,0,0,1,4.6,3,11.86,11.86,0,0,1,3,4.6,23.63,23.63,0,0,1,1.4,7.4c.2,4.2.2,5.5.2,16.2s0,11.9-.2,16.2a21,21,0,0,1-1.4,7.4,13.33,13.33,0,0,1-7.6,7.6,23.63,23.63,0,0,1-7.4,1.4c-4.2.2-5.5.2-16.2.2s-11.9,0-16.2-.2a21,21,0,0,1-7.4-1.4,11.86,11.86,0,0,1-4.6-3,11.86,11.86,0,0,1-3-4.6,23.63,23.63,0,0,1-1.4-7.4c-.2-4.3-.2-5.5-.2-16.2s0-11.9.2-16.2a21,21,0,0,1,1.4-7.4,11.86,11.86,0,0,1,3-4.6,11.86,11.86,0,0,1,4.6-3,23.63,23.63,0,0,1,7.4-1.4C28.1,7.2,29.3,7.2,40,7.2Z"/><path class="cls-1" d="M40,53.3A13.3,13.3,0,1,1,53.3,40,13.29,13.29,0,0,1,40,53.3Zm0-33.8A20.5,20.5,0,1,0,60.5,40,20.53,20.53,0,0,0,40,19.5Z"/><path class="cls-1" d="M66.2,18.6a4.8,4.8,0,1,1-4.8-4.8A4.87,4.87,0,0,1,66.2,18.6Z"/></svg>