<?xml version="1.0" encoding="utf-8"?>
<!-- Generator: Adobe Illustrator 25.4.1, SVG Export Plug-In . SVG Version: 6.00 Build 0)  -->
<svg version="1.1" id="Laag_1" xmlns:serif="http://www.serif.com/"
	 xmlns="http://www.w3.org/2000/svg" xmlns:xlink="http://www.w3.org/1999/xlink" x="0px" y="0px" viewBox="0 0 80 80"
	 style="enable-background:new 0 0 80 80;" xml:space="preserve">
<style type="text/css">
	.st0{fill:#333333;}
</style>
<g>
	<path class="st0" d="M40,0C29.1,0,27.8,0,23.5,0.2c-4.3,0.2-7.2,0.9-9.7,1.9c-2.6,1-4.9,2.4-7.1,4.6c-2.2,2.2-3.6,4.5-4.6,7.1
		c-1,2.5-1.7,5.5-1.9,9.7C0,27.8,0,29.1,0,40c0,10.9,0,12.2,0.2,16.5c0.2,4.3,0.9,7.2,1.9,9.7c1,2.6,2.4,4.9,4.6,7.1
		c2.2,2.2,4.5,3.6,7.1,4.6c2.5,1,5.5,1.7,9.7,1.9C27.8,80,29.1,80,40,80c10.9,0,12.2,0,16.5-0.2c4.3-0.2,7.2-0.9,9.7-1.9
		c2.6-1,4.9-2.4,7.1-4.6c2.2-2.2,3.6-4.5,4.6-7.1c1-2.5,1.7-5.5,1.9-9.7C80,52.2,80,50.9,80,40c0-10.9,0-12.2-0.2-16.5
		c-0.2-4.3-0.9-7.2-1.9-9.7c-1-2.6-2.4-4.9-4.6-7.1c-2.2-2.2-4.5-3.6-7.1-4.6c-2.5-1-5.5-1.7-9.7-1.9C52.2,0,50.9,0,40,0z M40,7.2
		c10.7,0,11.9,0,16.2,0.2c3.9,0.2,6,0.8,7.4,1.4c1.9,0.7,3.2,1.6,4.6,3c1.4,1.4,2.3,2.7,3,4.6c0.5,1.4,1.2,3.5,1.4,7.4
		c0.2,4.2,0.2,5.5,0.2,16.2c0,10.7,0,11.9-0.2,16.2c-0.2,3.9-0.8,6-1.4,7.4c-0.7,1.9-1.6,3.2-3,4.6c-1.4,1.4-2.7,2.3-4.6,3
		c-1.4,0.5-3.5,1.2-7.4,1.4c-4.2,0.2-5.5,0.2-16.2,0.2c-10.7,0-11.9,0-16.2-0.2c-3.9-0.2-6-0.8-7.4-1.4c-1.9-0.7-3.2-1.6-4.6-3
		c-1.4-1.4-2.3-2.7-3-4.6c-0.5-1.4-1.2-3.5-1.4-7.4C7.2,51.9,7.2,50.7,7.2,40c0-10.7,0-11.9,0.2-16.2c0.2-3.9,0.8-6,1.4-7.4
		c0.7-1.9,1.6-3.2,3-4.6c1.4-1.4,2.7-2.3,4.6-3c1.4-0.5,3.5-1.2,7.4-1.4C28.1,7.2,29.3,7.2,40,7.2z"/>
	<path class="st0" d="M40,53.3c-7.4,0-13.3-6-13.3-13.3c0-7.4,6-13.3,13.3-13.3c7.4,0,13.3,6,13.3,13.3C53.3,47.4,47.4,53.3,40,53.3
		z M40,19.5c-11.3,0-20.5,9.2-20.5,20.5c0,11.3,9.2,20.5,20.5,20.5c11.3,0,20.5-9.2,20.5-20.5C60.5,28.7,51.3,19.5,40,19.5z"/>
	<path class="st0" d="M66.2,18.6c0,2.7-2.1,4.8-4.8,4.8c-2.7,0-4.8-2.1-4.8-4.8c0-2.7,2.1-4.8,4.8-4.8C64,13.8,66.2,16,66.2,18.6z"
		/>
</g>
</svg>
