<svg id="Laag_1" data-name="Laag 1" xmlns="http://www.w3.org/2000/svg" viewBox="0 0 91 80"><defs><style>.cls-1{fill:#343434;}</style></defs><g id="Group_1" data-name="Group 1"><path id="Rectangle_85" data-name="Rectangle 85" class="cls-1" d="M13.77,10h73a9,9,0,0,1,9,9h0a9,9,0,0,1-9,9h-73a9,9,0,0,1-9-9h0A9,9,0,0,1,13.77,10Z" transform="translate(-4.77 -10)"/><path id="Rectangle_86" data-name="Rectangle 86" class="cls-1" d="M13.27,42h74a8.5,8.5,0,0,1,8.5,8.5h0a8.5,8.5,0,0,1-8.5,8.5h-74a8.51,8.51,0,0,1-8.5-8.5h0A8.51,8.51,0,0,1,13.27,42Z" transform="translate(-4.77 -10)"/><path id="Rectangle_87" data-name="Rectangle 87" class="cls-1" d="M13.77,72h73a9,9,0,0,1,9,9h0a9,9,0,0,1-9,9h-73a9,9,0,0,1-9-9h0A9,9,0,0,1,13.77,72Z" transform="translate(-4.77 -10)"/></g></svg>