<svg id="Laag_1" data-name="Laag 1" xmlns="http://www.w3.org/2000/svg" viewBox="0 0 80 80"><defs><style>.cls-1{fill:#343434;}</style></defs><g id="Group_1" data-name="Group 1"><path id="Rectangle_85" data-name="Rectangle 85" class="cls-1" d="M9.55,6.63h60.9A7.51,7.51,0,0,1,78,14.14h0a7.5,7.5,0,0,1-7.51,7.5H9.55A7.5,7.5,0,0,1,2,14.14H2A7.51,7.51,0,0,1,9.55,6.63Z"/><path id="Rectangle_86" data-name="Rectangle 86" class="cls-1" d="M9.13,33.32H70.87A7.09,7.09,0,0,1,78,40.42h0a7.09,7.09,0,0,1-7.09,7.09H9.13A7.09,7.09,0,0,1,2,40.42H2A7.09,7.09,0,0,1,9.13,33.32Z"/><path id="Rectangle_87" data-name="Rectangle 87" class="cls-1" d="M9.55,58.36h60.9A7.5,7.5,0,0,1,78,65.86h0a7.51,7.51,0,0,1-7.51,7.51H9.55A7.51,7.51,0,0,1,2,65.86H2A7.5,7.5,0,0,1,9.55,58.36Z"/></g></svg>