<?xml version="1.0" encoding="utf-8"?>
<!-- Generator: Adobe Illustrator 25.4.1, SVG Export Plug-In . SVG Version: 6.00 Build 0)  -->
<svg version="1.1" id="Laag_1" xmlns="http://www.w3.org/2000/svg" xmlns:xlink="http://www.w3.org/1999/xlink" x="0px" y="0px"
	 viewBox="0 0 80 80" style="enable-background:new 0 0 80 80;" xml:space="preserve">
<style type="text/css">
	.st0{fill:#343434;}
</style>
<g id="Group_1">
	<path id="Rectangle_85" class="st0" d="M9.6,6.6h60.9c4.1,0,7.5,3.3,7.5,7.5c0,0,0,0,0,0l0,0c0,4.1-3.4,7.5-7.5,7.5c0,0,0,0,0,0
		H9.6c-4.1,0-7.5-3.3-7.5-7.4c0,0,0,0,0-0.1l0,0C2,10,5.4,6.6,9.6,6.6C9.5,6.6,9.5,6.6,9.6,6.6z"/>
	<path id="Rectangle_86" class="st0" d="M9.1,33.3h61.7c3.9,0,7.1,3.1,7.1,7c0,0,0,0,0,0.1l0,0c0,3.9-3.2,7.1-7.1,7.1H9.1
		c-3.9,0-7.1-3.1-7.1-7c0,0,0,0,0,0l0,0C2,36.5,5.2,33.3,9.1,33.3C9.1,33.3,9.1,33.3,9.1,33.3z"/>
	<path id="Rectangle_87" class="st0" d="M9.6,58.4h60.9c4.1,0,7.5,3.3,7.5,7.4c0,0,0,0,0,0.1l0,0c0,4.1-3.4,7.5-7.5,7.5l0,0H9.6
		C5.4,73.4,2,70,2,65.9c0,0,0,0,0,0l0,0C2,61.7,5.4,58.4,9.6,58.4C9.5,58.4,9.5,58.4,9.6,58.4z"/>
</g>
</svg>
