<svg id="Laag_1" data-name="Laag 1" xmlns="http://www.w3.org/2000/svg" viewBox="0 0 80 80"><defs><style>.cls-1{fill:#343434;}</style></defs><path id="Rectangle_85" data-name="Rectangle 85" class="cls-1" d="M17.65,3,77,62.35A10.33,10.33,0,0,1,77,77h0a10.34,10.34,0,0,1-14.63,0L3,17.66A10.34,10.34,0,0,1,3,3H3A10.33,10.33,0,0,1,17.65,3Z"/><path id="Rectangle_90" data-name="Rectangle 90" class="cls-1" d="M77,17.65,17.66,77A10.34,10.34,0,0,1,3,77H3A10.34,10.34,0,0,1,3,62.34L62.34,3A10.34,10.34,0,0,1,77,3h0A10.33,10.33,0,0,1,77,17.65Z"/></svg>