
<svg xmlns="http://www.w3.org/2000/svg" viewBox="0 0 20 20" aria-hidden="true" role="img" focusable="false"><path d="M10 1.5a8.5 8.5 0 10.001 17.001A8.5 8.5 0 0010 1.5zm0 16a7.44 7.44 0 01-3.956-1.142 6.253 6.253 0 01.672-2.101c.673-1.256 1.689-1.989 3.164-1.989 1.483 0 2.54.721 3.271 1.953.262.442.462.918.607 1.395a6.6 6.6 0 01.166.752A7.427 7.427 0 0110 17.5zM7.699 9.106c0-1.246 1.005-2.256 2.245-2.256s2.245 1.01 2.245 2.256c0 1.247-1.006 2.257-2.245 2.257s-2.245-1.01-2.245-2.257zm7.042 6.703a7.258 7.258 0 00-.816-2.047c-.557-.938-1.294-1.644-2.223-2.039a3.158 3.158 0 001.386-2.617c0-1.743-1.408-3.156-3.145-3.156S6.799 7.364 6.799 9.106c0 1.076.539 2.024 1.358 2.594-.959.398-1.701 1.136-2.235 2.132a7.212 7.212 0 00-.622 1.633c-.031.121-.05.22-.071.321a7.5 7.5 0 119.512.023z"></path></svg>