<?xml version="1.0" encoding="utf-8"?>
<!-- Generator: Adobe Illustrator 25.4.1, SVG Export Plug-In . SVG Version: 6.00 Build 0)  -->
<svg version="1.1" id="Laag_1" xmlns:serif="http://www.serif.com/"
	 xmlns="http://www.w3.org/2000/svg" xmlns:xlink="http://www.w3.org/1999/xlink" x="0px" y="0px" viewBox="0 0 80 80"
	 style="enable-background:new 0 0 80 80;" xml:space="preserve">
<style type="text/css">
	.st0{fill:#333333;}
	.st1{fill:#FFFFFF;}
</style>
<g>
	<path id="Dark_Blue" class="st0" d="M70,80H10C4.5,80,0,75.5,0,70V10C0,4.5,4.5,0,10,0h60c5.5,0,10,4.5,10,10v60
		C80,75.5,75.5,80,70,80z"/>
	<path id="Logo__x2014__FIXED" class="st1" d="M30.7,60.3c18.9,0,29.2-15.6,29.2-29.2c0-0.4,0-0.9,0-1.3c2-1.4,3.7-3.3,5.1-5.3
		c-1.8,0.8-3.8,1.4-5.9,1.6c2.1-1.3,3.7-3.3,4.5-5.7c-2,1.2-4.2,2-6.5,2.5c-1.9-2-4.5-3.2-7.5-3.2c-5.7,0-10.3,4.6-10.3,10.3
		c0,0.8,0.1,1.6,0.3,2.3c-8.5-0.4-16.1-4.5-21.1-10.7c-0.9,1.5-1.4,3.3-1.4,5.2c0,3.6,1.8,6.7,4.6,8.5C20,35.2,18.4,34.7,17,34v0.1
		c0,5,3.5,9.1,8.2,10.1c-0.9,0.2-1.8,0.4-2.7,0.4c-0.7,0-1.3-0.1-1.9-0.2c1.3,4.1,5.1,7,9.6,7.1c-3.5,2.8-7.9,4.4-12.7,4.4
		c-0.8,0-1.6,0-2.4-0.1C19.5,58.6,24.9,60.3,30.7,60.3"/>
</g>
</svg>
