<svg id="Laag_1" data-name="Laag 1" xmlns="http://www.w3.org/2000/svg" width="60" height="60" viewBox="0 0 60 60"><defs><style>.cls-1{fill:#333;}.cls-2{fill:#fff;}</style></defs><path id="Dark_Blue" data-name="Dark Blue" class="cls-1" d="M52.5,60H7.5A7.53,7.53,0,0,1,0,52.5V7.5A7.52,7.52,0,0,1,7.5,0h45A7.52,7.52,0,0,1,60,7.5v45A7.53,7.53,0,0,1,52.5,60Z" transform="translate(0 0)"/><path id="Logo_FIXED" data-name="Logo — FIXED" class="cls-2" d="M23,45.22c14.17,0,21.9-11.7,21.9-21.9v-1a16.06,16.06,0,0,0,3.82-4,14.58,14.58,0,0,1-4.43,1.21A8,8,0,0,0,47.7,15.3a16.16,16.16,0,0,1-4.88,1.88,7.62,7.62,0,0,0-5.62-2.4,7.71,7.71,0,0,0-7.73,7.72,6.33,6.33,0,0,0,.23,1.72,21.65,21.65,0,0,1-15.83-8,7.61,7.61,0,0,0-1,3.9,7.49,7.49,0,0,0,3.45,6.37,8.94,8.94,0,0,1-3.52-1v.07a7.73,7.73,0,0,0,6.15,7.58,9.4,9.4,0,0,1-2,.3,7.84,7.84,0,0,1-1.43-.15,7.68,7.68,0,0,0,7.2,5.32,15.12,15.12,0,0,1-9.53,3.3,15.31,15.31,0,0,1-1.79-.07A21.8,21.8,0,0,0,23,45.22" transform="translate(0 0)"/></svg>