<svg xmlns="http://www.w3.org/2000/svg" viewBox="0 0 20 20" aria-hidden="true" role="img" focusable="false">
    <path d="M17.773 8.773c-.37 0-.691.172-.916.432l-2.385-1.012.991-2.337c.088.02.171.053.265.053A1.227 1.227 0 1014.5 4.682c0 .081.031.153.046.229l-2.555 1.052-1.196-2.819a1.21 1.21 0 00.432-.916 1.227 1.227 0 10-2.454-.001c0 .383.186.711.461.936L8.31 5.579 5.856 4.537c.02-.088.053-.171.053-.265a1.227 1.227 0 10-1.227 1.227c.081 0 .153-.031.229-.046l1.206 2.929-2.761 1.137a1.228 1.228 0 10-1.129 1.708c.383 0 .711-.186.936-.461l2.759 1.055-1.04 2.719c-.067-.011-.129-.04-.2-.04a1.227 1.227 0 101.227 1.227c0-.104-.035-.197-.059-.294l2.671-1.214.998 2.424A1.226 1.226 0 0010 19c.678 0 1.227-.549 1.227-1.227 0-.37-.172-.691-.432-.917l1.158-2.729 2.587.989c-.012.068-.041.13-.041.201a1.227 1.227 0 101.227-1.227c-.094 0-.177.033-.265.053l-1.095-2.582 2.301-1.046A1.222 1.222 0 0019 10c0-.678-.549-1.227-1.227-1.227zM14.74 5.372c.075.107.162.198.267.277l-.996 2.348-1.41-.598-.414-.976 2.553-1.051zm-2.399 6.562l-2.158.981-1.968-.752-.979-2.377.601-1.572 2.743-1.13 1.64.696.941 2.22-.82 1.934zm1.092-1.294l.284.669-.703.32.419-.989zm-1.381 1.975l-.371.874-.843-.322 1.214-.552zm-2.509.591l-.757.344-.31-.752 1.067.408zm-1.97-1.288l-1.005-.384.408-1.066.597 1.45zm-.614-2.806l-.189-.458.432-.178-.243.636zm1.123-1.539l.509-1.332 1.342.569-1.851.763zm3.148-.755l.495-.204.214.504-.709-.3zm1.652 1.243l.934.396-.383.903-.551-1.299zm-3.2-4.671c.104.029.205.065.318.065.126 0 .24-.036.354-.071l1.175 2.77-.946.39-1.813-.77.912-2.384zm-4.31 1.87c.108-.075.199-.162.277-.267l2.482 1.053-.684 1.789-.868.357L5.372 5.26zM3.39 10.318c.027-.097.058-.192.06-.297l2.857-1.177.391.949-.597 1.561-2.711-1.036zm2.243 4.665a1.173 1.173 0 00-.285-.259L6.39 12l1.445.552.496 1.204-2.698 1.227zm4.721 1.634a1.187 1.187 0 00-.333-.067l-1.045-2.537 1.223-.556 1.287.492-1.132 2.668zm4.653-2.266a1.175 1.175 0 00-.283.301l-2.575-.985.576-1.358 1.187-.54 1.095 2.582zm-.835-3.249L13.704 10l.572-1.347 2.341.993c-.035.114-.072.228-.072.354 0 .007.004.014.004.021l-2.377 1.081z"></path>
</svg>