<svg id="Laag_1" data-name="Laag 1" xmlns="http://www.w3.org/2000/svg" width="60" height="60" viewBox="0 0 60 60"><defs><style>.cls-1{fill:#333;}.cls-2{fill:#fff;fill-rule:evenodd;}</style></defs><g id="WhatsApp-Logo-Icon"><path class="cls-1" d="M13.65-.3A23.57,23.57,0,0,0,9.82.07,12.68,12.68,0,0,0,6.6,1.12a9.89,9.89,0,0,0-3,2.1,10.77,10.77,0,0,0-2.18,3,12.76,12.76,0,0,0-1,3.23,25.51,25.51,0,0,0-.3,3.82A15,15,0,0,0,0,14.92v31.2A23.57,23.57,0,0,0,.37,50a12.68,12.68,0,0,0,1,3.22,10.63,10.63,0,0,0,2.1,2.93,10.54,10.54,0,0,0,3,2.17,12.38,12.38,0,0,0,3.23,1,25.51,25.51,0,0,0,3.82.3,12.55,12.55,0,0,0,1.65.08h31.2a23.42,23.42,0,0,0,3.83-.38,12.3,12.3,0,0,0,3.22-1,10.23,10.23,0,0,0,2.93-2.1,10.4,10.4,0,0,0,2.17-3A12.68,12.68,0,0,0,59.63,50a26.94,26.94,0,0,0,.3-3.83A14.16,14.16,0,0,0,60,44.47V13.35a23.57,23.57,0,0,0-.37-3.83A12.68,12.68,0,0,0,58.57,6.3a10.23,10.23,0,0,0-2.1-2.93,10.4,10.4,0,0,0-3-2.17,12.18,12.18,0,0,0-3.22-1,25.54,25.54,0,0,0-3.83-.3A7,7,0,0,0,44.77-.3Z" transform="translate(0 0.3)"/><path class="cls-2" d="M40.42,33.67A40.34,40.34,0,0,0,36.75,32c-.53-.15-.83-.3-1.2.3S34.2,34,33.82,34.35s-.6.37-1.12.15a15.56,15.56,0,0,1-4.28-2.63,20.25,20.25,0,0,1-3-3.67c-.3-.53,0-.83.23-1.13s.52-.6.82-.9a2.17,2.17,0,0,0,.53-.9.93.93,0,0,0-.08-.9c-.15-.3-1.2-2.92-1.65-4s-.9-.9-1.2-.9H23a2,2,0,0,0-1.42.67,5.76,5.76,0,0,0-1.88,4.43c0,2.62,2,5.17,2.18,5.55s3.75,5.77,9.15,8.1a27.52,27.52,0,0,0,3.07,1.12,7.64,7.64,0,0,0,3.38.23c1-.15,3.15-1.28,3.6-2.55a4.26,4.26,0,0,0,.3-2.55c-.08-.45-.45-.6-1-.83M30.67,47h0a17.55,17.55,0,0,1-9.07-2.48l-.68-.37-6.75,1.8L16,39.37l-.45-.67a17.54,17.54,0,0,1-2.7-9.45A17.77,17.77,0,0,1,30.6,11.47a18,18,0,0,1,12.6,5.18,17.46,17.46,0,0,1,5.17,12.6A17.68,17.68,0,0,1,30.67,47M45.75,14.1A21.38,21.38,0,0,0,9.22,29.17,21.73,21.73,0,0,0,12.07,39.9L9.07,51,20.4,48a21.33,21.33,0,0,0,10.2,2.62h0A21.41,21.41,0,0,0,52,29.25,20.68,20.68,0,0,0,45.75,14.1" transform="translate(0 0.3)"/></g></svg>