<?xml version="1.0" encoding="utf-8"?>
<!-- Generator: Adobe Illustrator 25.4.1, SVG Export Plug-In . SVG Version: 6.00 Build 0)  -->
<svg version="1.1" id="Laag_1" xmlns:serif="http://www.serif.com/"
	 xmlns="http://www.w3.org/2000/svg" xmlns:xlink="http://www.w3.org/1999/xlink" x="0px" y="0px" viewBox="0 0 80 80"
	 style="enable-background:new 0 0 80 80;" xml:space="preserve">
<style type="text/css">
	.st0{fill:#333333;}
	.st1{fill-rule:evenodd;clip-rule:evenodd;fill:#FFFFFF;}
</style>
<g id="WhatsApp-Logo-Icon">
	<path class="st0" d="M18.2,0c-1.8,0.1-4.1,0.2-5.1,0.5c-1.6,0.3-3.1,0.8-4.3,1.4C7.2,2.6,5.9,3.6,4.8,4.7c-1.2,1.2-2.2,2.5-2.9,4
		C1.3,9.9,0.8,11.4,0.5,13c-0.2,1-0.4,3.4-0.4,5.1C0,18.9,0,19.8,0,20.3v39.4v2.2c0.1,1.8,0.2,4.1,0.5,5.1c0.3,1.6,0.8,3.1,1.4,4.3
		c0.7,1.5,1.7,2.8,2.8,3.9c1.2,1.2,2.5,2.2,4,2.9c1.2,0.6,2.7,1.1,4.3,1.4c1,0.2,3.4,0.4,5.1,0.4c0.7,0.1,1.7,0.1,2.2,0.1h39.4h2.2
		c1.8-0.1,4.1-0.2,5.1-0.5c1.6-0.3,3.1-0.8,4.3-1.4c1.5-0.7,2.8-1.7,3.9-2.8c1.2-1.2,2.2-2.5,2.9-4c0.6-1.2,1.1-2.7,1.4-4.3
		c0.2-1,0.4-3.4,0.4-5.1c0.1-0.7,0.1-1.7,0.1-2.2V18.2c-0.1-1.8-0.2-4.1-0.5-5.1c-0.3-1.6-0.8-3.1-1.4-4.3c-0.7-1.5-1.7-2.8-2.8-3.9
		c-1.2-1.2-2.5-2.2-4-2.9c-1.2-0.6-2.7-1.1-4.3-1.4c-1-0.2-3.4-0.4-5.1-0.4C61.1,0,60.2,0,59.7,0C59.7,0,18.2,0,18.2,0z"/>
	<path class="st1" d="M53.9,45.3c-0.7-0.4-4.2-2.1-4.9-2.3c-0.7-0.2-1.1-0.4-1.6,0.4c-0.5,0.7-1.8,2.3-2.3,2.8
		c-0.4,0.5-0.8,0.5-1.5,0.2c-0.7-0.4-3-1.1-5.7-3.5c-2.1-1.9-3.5-4.2-4-4.9c-0.4-0.7,0-1.1,0.3-1.5c0.3-0.3,0.7-0.8,1.1-1.2
		c0.4-0.4,0.5-0.7,0.7-1.2s0.1-0.9-0.1-1.2c-0.2-0.4-1.6-3.9-2.2-5.3c-0.6-1.4-1.2-1.2-1.6-1.2c-0.4,0-0.9,0-1.4,0
		c-0.5,0-1.2,0.2-1.9,0.9c-0.7,0.7-2.5,2.4-2.5,5.9c0,3.5,2.6,6.9,2.9,7.4c0.4,0.5,5,7.7,12.2,10.8c1.7,0.7,3,1.2,4.1,1.5
		c1.7,0.5,3.3,0.5,4.5,0.3c1.4-0.2,4.2-1.7,4.8-3.4c0.6-1.7,0.6-3.1,0.4-3.4C55.1,45.8,54.6,45.6,53.9,45.3 M40.9,63L40.9,63
		c-4.3,0-8.4-1.1-12.1-3.3l-0.9-0.5l-9,2.4l2.4-8.7l-0.6-0.9c-2.4-3.8-3.6-8.1-3.6-12.6c0-13.1,10.6-23.7,23.7-23.7
		c6.3,0,12.3,2.5,16.8,6.9s6.9,10.4,6.9,16.8C64.6,52.4,53.9,63,40.9,63 M61,19.2c-5.4-5.4-12.5-8.4-20.2-8.4
		c-15.7,0-28.5,12.8-28.5,28.5c0,5,1.3,9.9,3.8,14.3l-4,14.8l15.1-4c4.2,2.3,8.9,3.5,13.6,3.5h0c15.7,0,28.5-12.8,28.5-28.5
		C69.4,31.7,66.4,24.5,61,19.2"/>
</g>
</svg>
